<svg height="512" viewBox="0 0 64 64" width="512" xmlns="http://www.w3.org/2000/svg"><path d="m9 7h46v26h-46z" fill="#ffeb99"/><path d="m9 14v17a2 2 0 0 0 2 2h19c-11.607 0-21-8.5-21-19z" fill="#ffde55"/><path d="m35 39h16a4 4 0 0 0 4-4v-2h-28v6z" fill="#004fac"/><path d="m51 3h-38a4 4 0 0 0 -4 4h46a4 4 0 0 0 -4-4z" fill="#004fac"/><path d="m41 49h-10v12h30v-12z" fill="#57a4ff"/><path d="m44 47a2 2 0 0 0 -2-2h-15v4h15a2 2 0 0 0 2-2z" fill="#6d6e71"/><path d="m3 29h24v32h-24z" fill="#ffdaaa"/><path d="m3 44v17h21c-11.607 0-21-6.5-21-17z" fill="#ffc477"/><path d="m18.445 14.832 3 2a1 1 0 1 0 1.11-1.664l-1.755-1.168 1.752-1.168a1 1 0 0 0 -1.11-1.664l-3 2a1 1 0 0 0 0 1.664z" fill="#ffcd00"/><path d="m29.168 16.555a1 1 0 0 0 1.387.277l3-2a1 1 0 0 0 0-1.664l-3-2a1 1 0 0 0 -1.11 1.664l1.755 1.168-1.752 1.168a1 1 0 0 0 -.28 1.387z" fill="#ffcd00"/><path d="m24.684 17.949a1 1 0 0 0 1.264-.633l2-6a1 1 0 1 0 -1.9-.632l-2 6a1 1 0 0 0 .636 1.265z" fill="#ffcd00"/><path d="m19 19h6v2h-6z" fill="#ffcd00"/><path d="m27 19h2v2h-2z" fill="#ffcd00"/><path d="m23 22h12v2h-12z" fill="#ffcd00"/><path d="m41 22h9v2h-9z" fill="#ffcd00"/><path d="m23 25h2v2h-2z" fill="#ffcd00"/><path d="m14 35h2v5h-2z" fill="#ff9811"/><path d="m14 42v5h2v-5" fill="#ff9811"/><path d="m14 51v4h2v-4" fill="#ff9811"/><path d="m27 25h12v2h-12z" fill="#ffcd00"/><path d="m41 25h4v2h-4z" fill="#ffcd00"/><path d="m30 28h6v2h-6z" fill="#ffcd00"/><path d="m38 28h2v2h-2z" fill="#ffcd00"/><path d="m37 22h2v2h-2z" fill="#ffcd00"/><g fill="#f1f2f2"><path d="m36 51h2v2h-2z"/><path d="m39 51h2v2h-2z"/><path d="m42 51h2v2h-2z"/><path d="m45 51h2v2h-2z"/><path d="m48 51h2v2h-2z"/><path d="m51 51h2v2h-2z"/><path d="m54 51h2v2h-2z"/><path d="m36 54h2v2h-2z"/><path d="m39 54h2v2h-2z"/><path d="m42 54h2v2h-2z"/><path d="m45 54h2v2h-2z"/><path d="m48 54h2v2h-2z"/><path d="m51 54h2v2h-2z"/><path d="m54 54h2v2h-2z"/><path d="m36 57h2v2h-2z"/><path d="m39 57h14v2h-14z"/><path d="m54 57h2v2h-2z"/><path d="m57 51h2v2h-2z"/><path d="m57 54h2v2h-2z"/><path d="m57 57h2v2h-2z"/><path d="m33 51h2v2h-2z"/><path d="m33 54h2v2h-2z"/><path d="m33 57h2v2h-2z"/></g><path d="m19 33.5a1.5 1.5 0 0 0 -1.5-1.5h-5a1.5 1.5 0 0 0 0 3h5a1.5 1.5 0 0 0 1.5-1.5z" fill="#ff3051"/><path d="m15 43 4-2-4-2-4 2z" fill="#5eac24"/><path d="m11 51h4 4v-4h-8z" fill="#006df0"/><path d="m11 56.5a1.5 1.5 0 0 0 1.5 1.5h5a1.5 1.5 0 0 0 0-3h-5a1.5 1.5 0 0 0 -1.5 1.5z" fill="#ff3051"/><path d="m27 45h11l-1.333-4h-9.667z" fill="#bcbec0"/><path d="m27 39v2h9.667l-.667-2z" fill="#a7a9ac"/></svg>