<?xml version="1.0" encoding="iso-8859-1"?>
<!-- Generator: Adobe Illustrator 19.0.0, SVG Export Plug-In . SVG Version: 6.00 Build 0)  -->
<svg version="1.1" id="Capa_1" xmlns="http://www.w3.org/2000/svg" xmlns:xlink="http://www.w3.org/1999/xlink" x="0px" y="0px"
	 viewBox="0 0 512 512" style="enable-background:new 0 0 512 512;" xml:space="preserve">
<rect x="204.8" y="412.588" style="fill:#ABBACD;" width="102.4" height="62.295"/>
<rect x="204.8" y="412.588" style="fill:#91A4B6;" width="102.4" height="28.209"/>
<path style="fill:#BAC7D9;" d="M494.933,76.801c9.426,0,17.067,7.641,17.067,17.067v307.199c0,9.426-7.641,17.067-17.067,17.067
	H17.067C7.641,418.133,0,410.492,0,401.066V93.868C0,84.441,7.641,76.8,17.067,76.8C17.067,76.8,494.933,76.8,494.933,76.801z"/>
<path style="fill:#A5B5CC;" d="M494.933,76.801H472.27c9.426,0,17.067,7.641,17.067,17.067v307.199
	c0,9.426-7.641,17.067-17.067,17.067h22.663c9.426,0,17.067-7.641,17.067-17.067V93.868C512,84.441,504.359,76.801,494.933,76.801z"
	/>
<circle style="fill:#D7DCF2;" cx="256" cy="384" r="12.801"/>
<path style="fill:#474855;" d="M512,349.865V93.868c0-9.426-7.641-17.067-17.067-17.067H17.067C7.641,76.801,0,84.441,0,93.868
	v255.998H512z"/>
<path style="fill:#3C3C47;" d="M494.933,76.801h-22.664c9.426,0,17.067,7.641,17.067,17.067v255.998H512V93.868
	C512,84.441,504.359,76.801,494.933,76.801z"/>
<path style="fill:#FFFFFF;" d="M25.6,108.582v209.503c0,3.414,2.767,6.181,6.181,6.181h448.438c3.414,0,6.181-2.767,6.181-6.181
	V108.582c0-3.414-2.767-6.181-6.181-6.181H31.781C28.367,102.401,25.6,105.169,25.6,108.582z"/>
<path style="fill:#FF5A6A;" d="M486.398,145.066H25.6v-36.485c0-3.414,2.767-6.181,6.181-6.181h448.438
	c3.414,0,6.181,2.768,6.181,6.181L486.398,145.066z"/>
<path style="fill:#FFFFFF;" d="M68.266,131.46H51.201c-4.267,0-7.726-3.459-7.726-7.726c0-4.267,3.459-7.726,7.726-7.726h17.065
	c4.267,0,7.726,3.459,7.726,7.726C75.992,128.001,72.533,131.46,68.266,131.46z"/>
<path style="fill:#BAC7D9;" d="M369.286,503.467H142.715c-3.414,0-6.181-2.767-6.181-6.181v-21.771c0-3.414,2.767-6.181,6.181-6.181
	h226.571c3.414,0,6.181,2.767,6.181,6.181v21.771C375.467,500.699,372.7,503.467,369.286,503.467z"/>
<path style="fill:#A5B5CC;" d="M369.286,469.333h-22.664c3.414,0,6.181,2.767,6.181,6.181v21.771c0,3.414-2.767,6.181-6.181,6.181
	h22.664c3.414,0,6.181-2.767,6.181-6.181v-21.771C375.467,472.102,372.7,469.333,369.286,469.333z"/>
<path style="fill:#BAC7D9;" d="M370.955,112.459c-2.534-8.954-6.086-17.48-10.523-25.447c-1.158-2.079-1.006-4.637,0.376-6.574
	l6.756-9.458c1.756-2.459,1.477-5.827-0.659-7.963l-28.8-28.8c-2.137-2.137-5.504-2.416-7.963-0.659l-9.439,6.742
	c-1.938,1.384-4.499,1.534-6.578,0.374c-7.941-4.43-16.438-7.98-25.362-10.519c-2.287-0.651-3.987-2.568-4.378-4.913l-1.924-11.544
	c-0.497-2.98-3.075-5.165-6.097-5.165h-40.729c-3.022,0-5.6,2.184-6.097,5.165l-1.924,11.544c-0.39,2.346-2.092,4.263-4.379,4.913
	c-8.886,2.529-17.349,6.06-25.26,10.464c-2.079,1.157-4.637,1.006-6.573-0.376l-9.622-6.872c-2.459-1.756-5.827-1.477-7.963,0.659
	l-28.8,28.8c-2.137,2.137-2.415,5.504-0.659,7.963l6.859,9.602c1.384,1.938,1.534,4.498,0.374,6.578
	c-4.397,7.885-7.926,16.32-10.459,25.176c-0.653,2.283-2.568,3.981-4.911,4.371l-11.723,1.954c-2.98,0.497-5.165,3.075-5.165,6.097
	v40.729c0,3.022,2.184,5.6,5.165,6.097l11.645,1.941c2.348,0.391,4.266,2.095,4.915,4.385c2.513,8.862,6.021,17.304,10.4,25.198
	c1.152,2.078,0.999,4.632-0.381,6.564l-6.906,9.669c-1.756,2.459-1.477,5.827,0.659,7.963l28.8,28.8
	c2.137,2.137,5.504,2.415,7.963,0.659l9.554-6.825c1.94-1.386,4.505-1.534,6.586-0.369c7.903,4.424,16.358,7.974,25.238,10.523
	c2.28,0.654,3.974,2.569,4.365,4.909l1.937,11.621c0.497,2.98,3.075,5.165,6.097,5.165h40.728c3.022,0,5.6-2.185,6.097-5.165
	l1.911-11.466c0.391-2.35,2.099-4.27,4.393-4.917c8.93-2.519,17.435-6.048,25.385-10.459c2.077-1.153,4.632-1,6.564,0.381
	l9.505,6.79c2.459,1.756,5.827,1.477,7.963-0.659l28.8-28.8c2.137-2.137,2.415-5.504,0.659-7.963l-6.708-9.39
	c-1.386-1.941-1.534-4.506-0.369-6.586c4.457-7.957,8.027-16.476,10.583-25.424c0.652-2.284,2.568-3.982,4.911-4.372l11.443-1.907
	c2.98-0.497,5.165-3.075,5.165-6.097v-40.728c0-3.022-2.185-5.6-5.165-6.097l-11.365-1.894
	C373.522,116.453,371.603,114.749,370.955,112.459z M286.503,176.887c-45.23,33.466-95.789-17.093-62.322-62.323
	c0.369-0.499,0.819-0.949,1.318-1.318c45.229-33.465,95.787,17.093,62.322,62.323C287.451,176.068,287.001,176.518,286.503,176.887z
	"/>
<path style="fill:#A5B5CC;" d="M256,68.268c-42.416,0-76.8,34.384-76.8,76.8s34.384,76.8,76.8,76.8s76.8-34.384,76.8-76.8
	S298.416,68.268,256,68.268z M256,187.733c-23.564,0-42.667-19.103-42.667-42.667s19.103-42.667,42.667-42.667
	s42.667,19.103,42.667,42.667S279.564,187.733,256,187.733z"/>
<path style="fill:#474855;" d="M256,229.594c-46.608,0-84.526-37.918-84.526-84.526S209.393,60.541,256,60.541
	s84.526,37.919,84.526,84.526S302.608,229.594,256,229.594z M256,75.994c-38.088,0-69.074,30.987-69.074,69.074
	s30.987,69.074,69.074,69.074s69.074-30.987,69.074-69.074C325.074,106.98,294.088,75.994,256,75.994z"/>
<g>
</g>
<g>
</g>
<g>
</g>
<g>
</g>
<g>
</g>
<g>
</g>
<g>
</g>
<g>
</g>
<g>
</g>
<g>
</g>
<g>
</g>
<g>
</g>
<g>
</g>
<g>
</g>
<g>
</g>
</svg>
