<svg id="SvgjsSvg1041" width="288" height="288" xmlns="http://www.w3.org/2000/svg" version="1.1" xmlns:xlink="http://www.w3.org/1999/xlink" xmlns:svgjs="http://svgjs.com/svgjs"><defs id="SvgjsDefs1042"></defs><g id="SvgjsG1043"><svg xmlns="http://www.w3.org/2000/svg" data-name="Layer 1" viewBox="0 0 512 512" width="288" height="288"><path fill="#343c4a" d="M206.62766,3.499h98.74468a31,31,0,0,1,31,31V101.4992a0,0,0,0,1,0,0H175.62766a0,0,0,0,1,0,0V34.499a31,31,0,0,1,31-31Z" class="color343c4a svgShape"></path><path fill="#243047" d="M290.50391,101.499h45.8684v-67a30.856,30.856,0,0,0-3.55261-14.40771A88.17163,88.17163,0,0,1,319.30737,44.9375,87.812,87.812,0,0,1,305,59.499Z" class="color243047 svgShape"></path><path fill="#700808" d="M447.55957,501.999V347.31989a60,60,0,0,0-38.01-55.82508l-97.01835-38.21639a20,20,0,0,1-12.67-18.60836V215.7627H212.13892v18.90736a20,20,0,0,1-12.67,18.60836l-97.01846,38.21639a60,60,0,0,0-38.01,55.8251V501.999a10,10,0,0,0,10,10H437.55957A10,10,0,0,0,447.55957,501.999Z" class="color8fd17a svgShape"></path><path fill="#cc938b" d="M194.27905,255.32275a67.49771,67.49771,0,0,0,123.442,0h.00006l-5.18988-2.04443a19.99959,19.99959,0,0,1-12.67-18.6084V215.7627H212.13892v18.90722a19.99959,19.99959,0,0,1-12.67,18.6084l-5.18994,2.04443Z" class="colorcc938b svgShape"></path><path fill="#a56362" d="M303.04382,245.47168a19.962,19.962,0,0,1-3.18261-10.80176V215.7627H212.13892v7.73974A100.87212,100.87212,0,0,0,235.7074,244.6958,63.12181,63.12181,0,0,0,303.04382,245.47168Z" class="colora56362 svgShape"></path><path fill="#cc938b" d="M327.57336,180.20264A100.8781,100.8781,0,0,1,290.293,223.69531l-.00043.00049a63.128,63.128,0,0,1-68.58514,0,100.88022,100.88022,0,0,1-37.28064-43.49268l-.00012-.00048a100.87854,100.87854,0,0,1-8.79895-41.20508V101.499a211.64548,211.64548,0,0,0,78.51306-13.8999A210.46609,210.46609,0,0,0,305,59.499a68.35471,68.35471,0,0,0,31.37231,42v37.49854A100.87951,100.87951,0,0,1,327.57336,180.20264Z" class="colorcc938b svgShape"></path><rect width="70.68" height="58.015" x="64.44" y="453.984" fill="#cc938b" class="colorcc938b svgShape"></rect><path fill="#a56362" d="M268.70444,159.48675v6.15083a12.7012,12.7012,0,0,1-12.7012,12.7012h-.00648a12.7012,12.7012,0,0,1-12.7012-12.7012v-6.15083a3,3,0,0,1,3-3h19.40888A3,3,0,0,1,268.70444,159.48675Z" class="colora56362 svgShape"></path><path fill="#a56362" d="M152.23776,97.42914h.00008A23.38985,23.38985,0,0,1,175.62769,120.819v.00006a17.65977,17.65977,0,0,1-17.65977,17.65977h-5.73016a0,0,0,0,1,0,0V97.42914A0,0,0,0,1,152.23776,97.42914Z" transform="rotate(180 163.933 117.954)" class="colora56362 svgShape"></path><path fill="#a56362" d="M336.37239,138.47881h0V97.42914h5.7301a17.65977,17.65977,0,0,1,17.65977,17.65972v0A23.38985,23.38985,0,0,1,336.37239,138.47881Z" class="colora56362 svgShape"></path><rect width="191.322" height="191.322" x="317.178" y="320.677" fill="#f2f2f2" rx="15" class="colorf2f2f2 svgShape"></rect><path fill="#343c4a" d="M332.17777,320.67679H493.5a15,15,0,0,1,15,15v20a0,0,0,0,1,0,0H317.17777a0,0,0,0,1,0,0v-20A15,15,0,0,1,332.17777,320.67679Z" class="color343c4a svgShape"></path><path fill="#cce4ff" d="M203.5 117.8213h35a7 7 0 0 1 7 7v13a7 7 0 0 1-7 7h-28a7 7 0 0 1-7-7v-20A0 0 0 0 1 203.5 117.8213zM273.5 117.8213h35a0 0 0 0 1 0 0v20a7 7 0 0 1-7 7h-28a7 7 0 0 1-7-7v-13A7 7 0 0 1 273.5 117.8213z" class="colorcce4ff svgShape"></path><path fill="none" stroke="#000000" stroke-linecap="round" stroke-linejoin="round" stroke-width="7" d="M175.62766 101.50018V34.5a31 31 0 0 1 31-31h98.74468a31 31 0 0 1 31 31v67.00018M299.86 216.68v17.99a20.00436 20.00436 0 0 0 12.67 18.61l97.02 38.22a59.88805 59.88805 0 0 1 29.88 25.68M212.14 216.68v17.99a20.00436 20.00436 0 0 1-12.67 18.61L102.45 291.5a59.99494 59.99494 0 0 0-38.01 55.82V508.5" class="colorStroke000 svgStroke"></path><line x1="135.12" x2="135.12" y1="508.5" y2="435.326" fill="none" stroke="#000000" stroke-linecap="round" stroke-linejoin="round" stroke-width="7" class="colorStroke000 svgStroke"></line><path fill="none" stroke="#000000" stroke-linecap="round" stroke-linejoin="round" stroke-width="7" d="M327.57336,180.20361A100.87812,100.87812,0,0,1,290.293,223.69629l-.00043.00049a63.128,63.128,0,0,1-68.58514,0,100.88028,100.88028,0,0,1-37.28064-43.49268l-.00012-.00049a100.87846,100.87846,0,0,1-8.79895-41.20507V101.5a211.64548,211.64548,0,0,0,78.51306-13.8999A210.46609,210.46609,0,0,0,305,59.5a68.35478,68.35478,0,0,0,31.37231,42v37.49854A100.87943,100.87943,0,0,1,327.57336,180.20361Z" class="colorStroke000 svgStroke"></path><line x1="64.44" x2="135.12" y1="453.985" y2="453.985" fill="none" stroke="#000000" stroke-linecap="round" stroke-linejoin="round" stroke-width="7" class="colorStroke000 svgStroke"></line><path fill="none" stroke="#000000" stroke-linecap="round" stroke-linejoin="round" stroke-width="7" d="M241.78033 197.98247a33.1958 33.1958 0 0 0 28.43934 0M268.70444 160.10867v5.52989A12.70281 12.70281 0 0 1 256 178.33975h0a12.70281 12.70281 0 0 1-12.70443-12.70119v-5.52989" class="colorStroke000 svgStroke"></path><path fill="none" stroke="#000000" stroke-linecap="round" stroke-linejoin="round" stroke-width="7" d="M152.23776,97.43011h.00008A23.38985,23.38985,0,0,1,175.62769,120.82V120.82a17.65977,17.65977,0,0,1-17.65977,17.65977h-5.73016a0,0,0,0,1,0,0V97.43011A0,0,0,0,1,152.23776,97.43011Z" transform="rotate(180 163.933 117.955)" class="colorStroke000 svgStroke"></path><path fill="none" stroke="#000000" stroke-linecap="round" stroke-linejoin="round" stroke-width="7" d="M317.721,255.32373a67.49771,67.49771,0,0,1-123.442,0" class="colorStroke000 svgStroke"></path><line x1="336.372" x2="308.5" y1="101.5" y2="117.821" fill="none" stroke="#000000" stroke-linecap="round" stroke-linejoin="round" stroke-width="7" class="colorStroke000 svgStroke"></line><line x1="175.628" x2="203.5" y1="101.5" y2="117.821" fill="none" stroke="#000000" stroke-linecap="round" stroke-linejoin="round" stroke-width="7" class="colorStroke000 svgStroke"></line><line x1="266.5" x2="245.5" y1="131.32" y2="131.32" fill="none" stroke="#000000" stroke-linecap="round" stroke-linejoin="round" stroke-width="7" class="colorStroke000 svgStroke"></line><path fill="none" stroke="#000000" stroke-linecap="round" stroke-linejoin="round" stroke-width="7" d="M203.5 117.8213h35a7 7 0 0 1 7 7v13a7 7 0 0 1-7 7h-28a7 7 0 0 1-7-7v-20A0 0 0 0 1 203.5 117.8213zM273.5 117.8213h35a0 0 0 0 1 0 0v20a7 7 0 0 1-7 7h-28a7 7 0 0 1-7-7v-13A7 7 0 0 1 273.5 117.8213zM305 59.5a87.8124 87.8124 0 0 0 14.30737-14.56152A88.17223 88.17223 0 0 0 332.822 20.08594M336.37239 138.47979h0V97.43011h5.7301a17.65977 17.65977 0 0 1 17.65977 17.65973v0A23.38985 23.38985 0 0 1 336.37239 138.47979z" class="colorStroke000 svgStroke"></path><rect width="191.322" height="191.322" x="317.178" y="317.178" fill="none" stroke="#000000" stroke-linecap="round" stroke-linejoin="round" stroke-width="7" rx="15" class="colorStroke000 svgStroke"></rect><path fill="none" stroke="#000000" stroke-linecap="round" stroke-linejoin="round" stroke-width="7" d="M332.17777,317.17777H493.5a15,15,0,0,1,15,15v20a0,0,0,0,1,0,0H317.17777a0,0,0,0,1,0,0v-20A15,15,0,0,1,332.17777,317.17777Z" class="colorStroke000 svgStroke"></path><circle cx="337.517" cy="335.054" r="3.5" fill="#000000" class="color000 svgShape"></circle><circle cx="351.517" cy="335.054" r="3.5" fill="#000000" class="color000 svgShape"></circle><circle cx="365.517" cy="335.054" r="3.5" fill="#000000" class="color000 svgShape"></circle><path fill="none" stroke="#000000" stroke-linecap="round" stroke-linejoin="round" stroke-width="7" d="M378.68813 453.03737l-25.54035-19.52043a4 4 0 0 1 0-6.35611l25.54035-19.52043M446.98964 453.03737L472.53 433.51694a4 4 0 0 0 0-6.35611L446.98964 407.6404" class="colorStroke000 svgStroke"></path><line x1="398.456" x2="427.222" y1="458.245" y2="402.433" fill="none" stroke="#000000" stroke-linecap="round" stroke-linejoin="round" stroke-width="7" class="colorStroke000 svgStroke"></line></svg></g></svg>